<?xml version="1.0" standalone="no"?>
<!DOCTYPE svg PUBLIC "-//W3C//DTD SVG 1.1//EN" "http://www.w3.org/Graphics/SVG/1.1/DTD/svg11.dtd" >
<svg xmlns="http://www.w3.org/2000/svg" xmlns:xlink="http://www.w3.org/1999/xlink" version="1.1">
<metadata>
Created by FontForge 20180930 at Mon Oct  8 19:11:36 2018
 By root
</metadata>
<defs>
<font id="RoundCornerFont-Regular" horiz-adv-x="446" >
  <font-face 
    font-family="Round Corner Font"
    font-weight="400"
    font-stretch="normal"
    units-per-em="1000"
    panose-1="2 0 5 3 0 0 0 0 0 0"
    ascent="800"
    descent="-200"
    x-height="455"
    cap-height="622"
    bbox="17 -219.136 744 677"
    underline-thickness="50"
    underline-position="-150"
    unicode-range="U+0020-00A0"
  />
    <missing-glyph />
    <glyph glyph-name="space" unicode=" " horiz-adv-x="130" 
 />
    <glyph glyph-name="exclam" unicode="!" horiz-adv-x="147" 
d="M19 31q0 21 15 38t37 17h2q9 0 23 -7.5t21 -16.5q10 -13 10 -30q0 -19 -12 -33.5t-32 -18.5q-3 -1 -9 -1q-21 0 -38 16t-17 36zM43 599q14 14 31 14q30 0 46 -36q8 -18 8 -170t-5 -169q-5 -15 -17 -28.5t-24 -16.5q-2 -1 -7 -1q-25 0 -43 31q-8 14 -9.5 37t-2.5 134v64
q0 80 4 103t19 38z" />
    <glyph glyph-name="percent" unicode="%" horiz-adv-x="614" 
d="M489 196q-12 8 -34 8q-21 0 -37 -15l-17 -14v-48q0 -43 6 -57q15 -27 55 -27q21 0 36 15l16 15v47q0 40 -4.5 53t-20.5 23zM428 270q12 2 23 2q42 0 65 -10q34 -14 57 -44q10 -14 16 -53q4 -23 4 -38q0 -10 -5 -47q-5 -31 -8.5 -40t-16.5 -22q-18 -18 -42 -31
q-22 -11 -63 -11t-63 11q-24 13 -42 31q-13 14 -17 23t-9 40q-5 32 -5 41q0 10 5 42q5 33 13 48t28 31q25 19 60 27zM413 523q21 22 37 22q8 0 14 -6t6 -14q0 -17 -27.5 -65.5t-110.5 -181.5q-95 -153 -124 -191.5t-48 -38.5q-20 0 -20 20q0 10 4 22q7 22 128 217t141 216z
M179 555q-13 6 -27 6q-26 0 -44 -22q-12 -15 -12 -56q0 -48 15 -66q16 -19 41 -19t45 20q9 10 11 18t2 42q0 39 -6 54t-25 23zM96 617q22 9 61 9q29 0 48 -6q18 -5 38 -20t29 -31q16 -25 16 -85q0 -30 -4 -49l-6 -41l-26 -25q-22 -21 -43.5 -28.5t-59.5 -7.5q-58 0 -97 38
q-15 14 -19 21.5t-8 28.5q-4 24 -4 57q0 38 5 60q4 26 26 49q22 22 44 30z" />
    <glyph glyph-name="ampersand" unicode="&#x26;" horiz-adv-x="562" 
d="M196 246q-8 6 -11 6q-5 0 -22 -16q-35 -30 -35 -75q0 -25 10 -46q22 -49 90 -49h14q34 2 48 8t15 20q2 14 -6 28q-7 13 -50 65t-53 59zM268 533q-15 6 -29 6q-27 0 -45.5 -19.5t-18.5 -49.5q0 -18 10 -41t21 -31q9 -6 17 -6q14 0 41 20q19 13 25 21t11 23q4 12 4 24
q0 37 -36 53zM178 620q15 5 47 5h20q45 -1 71 -14q34 -16 55 -46.5t25 -66.5q1 -5 1 -16q0 -67 -75 -127q-24 -19 -30.5 -26t-6.5 -13q0 -1 0.5 -2.5t0.5 -2.5q5 -22 45.5 -70t58.5 -52q3 -1 9 -1q10 0 15.5 8.5t11.5 32.5q9 32 24 46q14 12 26 12q15 0 26 -13.5t15 -37.5
q0 -2 0.5 -5t0.5 -4q0 -14 -15 -55q-19 -52 -19 -85q0 -19 6 -29q5 -12 29 -40q22 -28 22 -31q0 -5 -35 -5q-38 0 -57 5q-27 6 -43 15q-14 7 -24 7q-16 0 -54 -15q-50 -19 -103 -19q-112 0 -169 69q-21 25 -28 47t-7 61q0 46 12 70q13 25 38 53q39 43 39 69q0 11 -16 43
q-16 34 -18 76v24q0 27 7 44q25 67 95 89z" />
    <glyph glyph-name="parenleft" unicode="(" horiz-adv-x="271" 
d="M197 651q35 26 39 26t9 -15t5 -25q0 -1 -0.5 -3t-0.5 -3q-7 -27 -39 -66q-39 -44 -64 -135q-23 -89 -23 -206q0 -84 11 -146q10 -62 29.5 -107.5t55.5 -94.5q31 -42 31 -61q0 -9 -5 -21q-7 -17 -15 -12q-8 4 -10 8t-26 17q-43 24 -85 89t-60 136q-10 40 -19 100.5
t-9 92.5q0 78 24 178q39 161 152 248z" />
    <glyph glyph-name="plus" unicode="+" horiz-adv-x="478" 
d="M186 408q0 92 55 92q18 0 31 -15q23 -26 23 -78q0 -36 23.5 -58.5t62.5 -22.5q33 0 54.5 -14.5t21.5 -34.5q0 -7 -3 -14q-13 -30 -79 -37q-45 -4 -62.5 -23t-17.5 -63q0 -62 -29 -88q-14 -13 -25 -13q-8 0 -20 6q-31 16 -35 90q-3 51 -18.5 69t-62.5 22q-63 6 -78 35
q-6 11 -6 18t11 21q22 26 65 26q59 0 83 45q6 14 6 37z" />
    <glyph glyph-name="comma" unicode="," horiz-adv-x="163" 
d="M61 75q14 7 28 7q32 0 48 -22q6 -9 6 -27q0 -42 -30 -103q-16 -33 -35 -53.5t-33 -20.5q-25 0 -25 37q0 21 6 57q10 58 10 73q0 38 25 52z" />
    <glyph glyph-name="hyphen" unicode="-" horiz-adv-x="268" 
d="M57 285q17 6 84 6q47 0 63 -4q15 -4 30.5 -17t15.5 -22q0 -10 -11.5 -21t-27.5 -17q-20 -8 -77 -8q-65 0 -86 10q-31 13 -31 35q0 25 40 38z" />
    <glyph glyph-name="period" unicode="." horiz-adv-x="144" 
d="M42 67q11 7 28 7q34 0 49 -26q6 -12 6 -24q0 -36 -36 -50q-9 -4 -17 -4q-6 0 -17 4q-17 6 -27 20.5t-10 31.5q0 28 24 41z" />
    <glyph glyph-name="zero" unicode="0" horiz-adv-x="454" 
d="M273 514q-22 13 -48 13q-45 0 -70 -33q-18 -23 -21.5 -47t-5.5 -119q-1 -27 -1 -72q0 -131 19 -160q22 -36 61 -44q14 -2 20 -2q55 0 82 50q18 34 18 180q0 47 -3 92q-4 60 -6.5 75.5t-10.5 31.5q-13 23 -34 35zM159 605q21 8 65 8t68 -8q77 -24 110 -94q22 -48 30 -149
q2 -20 2 -67q0 -123 -14 -181q-19 -73 -68.5 -112.5t-122.5 -39.5q-10 0 -34 2q-61 7 -102.5 45.5t-58.5 101.5q-15 55 -15 182q0 97 10 150q21 126 130 162z" />
    <glyph glyph-name="one" unicode="1" horiz-adv-x="279" 
d="M127 594q53 6 61 6q4 0 20 -4q13 -4 27.5 -17.5t19.5 -27.5q5 -10 5 -263t-5 -268q-5 -18 -19 -33q-15 -16 -32 -16q-27 0 -44 34q-7 13 -8 43t-1 185q0 142 -1.5 178t-6.5 48q-10 21 -22.5 30t-35.5 12q-47 6 -60 31q-7 11 3 24q21 29 99 38z" />
    <glyph glyph-name="two" unicode="2" horiz-adv-x="472" 
d="M167 607q19 6 61 6q44 0 72 -7q74 -19 108 -80q24 -45 24 -93q0 -50 -26 -97q-19 -33 -54.5 -75.5t-151.5 -167.5l-29 -32l116 -1q81 -1 101.5 -2.5t33.5 -8.5q29 -16 29 -34q0 -23 -32 -37q-19 -9 -200 -9q-119 0 -144 6q-46 11 -46 36q0 1 0.5 2.5t0.5 2.5q9 38 69 106
q164 181 193 221t29 86q0 24 -2 33t-11 23q-26 42 -80 42q-49 0 -81 -38q-15 -19 -15 -24q0 -7 -10.5 -22.5t-19.5 -22.5q-13 -9 -46 -9h-35l1 17q6 66 23 92q11 17 38 41.5t43 31.5q15 7 41 14z" />
    <glyph glyph-name="three" unicode="3" horiz-adv-x="459" 
d="M171 610q12 3 44 3q55 0 78 -6q60 -15 92 -51q44 -47 44 -120q0 -14 -3 -28q-4 -19 -18 -45.5t-28 -41.5q-10 -12 -10 -19q0 -13 19 -33q49 -52 49 -124q0 -48 -23.5 -89t-65.5 -64q-57 -29 -126 -29q-77 0 -129 33q-19 12 -39.5 33.5t-22.5 31.5q-11 51 -11 69v13h31
q30 0 46.5 -7.5t29.5 -28.5q20 -32 41.5 -44t58.5 -12q52 0 79 33q21 26 21 67q0 55 -30 82q-8 7 -40.5 13t-64.5 6q-19 0 -30 11t-11 30q0 26 15.5 35t68.5 13q40 4 49 9q16 10 25.5 33.5t9.5 49.5q0 13 -3 25q-14 68 -89 68q-68 0 -94 -53q-10 -19 -25.5 -26.5t-47.5 -7.5
q-36 0 -36 6q0 14 8.5 47t14.5 42q15 23 52 46t71 30z" />
    <glyph glyph-name="four" unicode="4" horiz-adv-x="501" 
d="M289 317q0 10 0.5 30t0.5 29q0 10 -0.5 24t-0.5 16l-1 26l-63 -95q-64 -100 -65 -106q-1 -3 -1 -10q0 -31 51 -31q46 0 68 31q7 10 8.5 23t2.5 63zM308 596q18 9 34 9q32 0 49 -37q8 -18 8 -162q0 -145 6 -165q11 -41 35 -41q10 0 23.5 -12t15.5 -23q3 -12 -4 -28
q-5 -11 -11.5 -16t-27.5 -11q-30 -10 -35 -57q-5 -52 -24 -68q-17 -14 -32 -14q-9 0 -17 4q-16 7 -23 20.5t-12 40.5q-9 49 -37 65q-18 12 -110 12.5t-109 10.5q-16 10 -16 26q0 30 73 147q129 206 157 245t57 54z" />
    <glyph glyph-name="five" unicode="5" horiz-adv-x="445" 
d="M115 612q15 5 63 5q7 0 28.5 -0.5t36.5 -0.5q108 -1 120 -5q4 -2 9 -5q28 -16 28 -37q0 -15 -14 -27q-15 -13 -35.5 -16.5t-73.5 -3.5q-64 0 -81 -8q-40 -18 -50 -65q-2 -7 -2 -24q0 -36 8 -41q3 -2 24 6q22 8 58 8q46 0 76 -11q26 -10 51.5 -34t38.5 -51q24 -49 24 -114
q0 -62 -22 -107q-52 -107 -183 -107q-106 0 -165 65q-13 14 -16.5 23t-9.5 36q-7 42 -7 44q0 8 7 12q5 2 26 2q30 0 38 -4q29 -16 35 -40q2 -11 22.5 -27t38.5 -21q12 -3 26 -3q27 0 49 11q25 13 38.5 44.5t13.5 69.5q0 59 -29 94q-15 18 -30 24t-44 6q-50 0 -73 -23
q-26 -26 -55 -26q-17 0 -29 12q-19 19 -19 55q0 10 4 54q6 61 11 110q5 48 11 67q6 17 21 32t32 21z" />
    <glyph glyph-name="six" unicode="6" horiz-adv-x="468" 
d="M280 311q-24 11 -49 11q-30 0 -56.5 -12.5t-36.5 -32.5q-9 -18 -9 -40q0 -15 5 -57q11 -93 77 -114q17 -5 30 -5q40 0 66.5 33t29.5 89v12q0 87 -57 116zM212 620q32 6 52 6q26 0 59.5 -6.5t40.5 -13.5q15 -13 15 -36q0 -26 -18 -38q-8 -5 -14 -5q-1 0 -21 4q-22 5 -59 5
q-36 0 -58 -11q-61 -30 -75 -116q-5 -32 -5 -37q0 -7 4 -7q1 0 15 9q41 30 107 30h15q46 -2 74 -16q103 -54 103 -192q0 -79 -36.5 -134.5t-102.5 -78.5q-27 -9 -69 -9q-33 0 -56 6q-104 27 -144 138q-6 18 -12.5 76t-6.5 97q0 45 7 98.5t17 80.5q20 59 64 98t104 52z" />
    <glyph glyph-name="seven" unicode="7" horiz-adv-x="480" 
d="M65 612q16 5 175 5q129 0 161 -3t49 -19q10 -10 10 -24q0 -35 -61 -124q-61 -88 -82 -140q-15 -35 -32 -111.5t-26 -147.5q-5 -34 -8.5 -42.5t-18.5 -15.5q-16 -8 -33 -8q-21 0 -37 10t-16 25q0 13 11.5 77t19.5 94q33 129 109 245q34 52 34 69q0 12 -12 19
q-11 8 -132 10q-97 1 -117 5t-33 23q-5 8 -5 14q0 25 44 39z" />
    <glyph glyph-name="eight" unicode="8" horiz-adv-x="464" 
d="M286 249q-28 14 -57 14q-47 0 -73 -29q-25 -26 -25 -73q0 -59 45 -86q22 -12 55 -12q68 0 96 54q5 10 5 30v20q-1 35 -13 53t-33 29zM316 419q3 13 3 26q0 38 -24 65t-63 27q-14 0 -22 -2q-58 -11 -63 -80q0 -2 -0.5 -6t-0.5 -6q0 -41 24 -65.5t64 -24.5q13 0 19 1
q22 3 39.5 21t23.5 44zM179 620q23 5 53 5q57 0 103.5 -22t69.5 -61t23 -93q0 -3 -0.5 -7.5t-0.5 -6.5q-4 -48 -44 -95q-19 -22 -19 -30q0 -6 27 -35q19 -22 27.5 -35t16.5 -35.5t8 -49.5q0 -76 -44 -120q-60 -61 -166 -61q-88 0 -142 37t-67 107q-3 16 -3 34q0 71 54 124
q23 23 23 32q0 11 -19 33q-37 45 -41 98v14q0 65 37 109.5t104 57.5z" />
    <glyph glyph-name="nine" unicode="9" horiz-adv-x="461" 
d="M272 528q-22 9 -48 9h-5q-5 -2 -16 -4q-14 -3 -33.5 -22t-27.5 -38q-10 -21 -10 -69q0 -41 8 -64t29 -42q23 -20 57 -20q11 0 18 1q76 6 88 67q1 3 1 15q0 26 -5 66.5t-9 50.5q-8 15 -22 30.5t-25 19.5zM177 620q25 6 51 6q90 0 145 -55q40 -40 55 -102q13 -55 13 -168
q0 -47 -2 -68q-5 -83 -20.5 -126t-50.5 -75q-41 -38 -93 -52q-25 -6 -63 -6q-87 0 -109 20q-19 17 -19 42q0 16 11 27q7 6 19 6q9 0 15 -1q72 -7 87 -7q17 0 26 3q39 11 68 54q15 22 19 69q4 44 4 48q-2 2 -5.5 0t-11.5 -9q-22 -19 -43.5 -26t-59.5 -7q-45 0 -72.5 9.5
t-55.5 35.5q-64 61 -64 163q0 103 63 166q42 41 93 53z" />
    <glyph glyph-name="colon" unicode=":" horiz-adv-x="146" 
d="M47 80q12 6 26 6q36 0 49 -33q4 -12 4 -18q0 -27 -24 -43q-14 -10 -32 -10q-21 0 -36 15t-15 38q0 31 28 45zM35 451q16 15 28 15q1 0 5 -0.5t7 -0.5q24 -2 36 -16q16 -17 16 -34q0 -4 -4 -18q-14 -35 -51 -35q-14 0 -24 5q-29 14 -29 51q0 17 16 33z" />
    <glyph glyph-name="semicolon" unicode=";" horiz-adv-x="164" 
d="M52 77q10 10 16 12t21 2q41 0 53 -30q3 -6 3 -17q0 -32 -21 -82t-47 -76q-22 -22 -36 -22q-21 0 -21 43q0 21 6 53q5 30 9 68q2 24 4.5 31.5t12.5 17.5zM54 463q12 7 30 7q17 0 32.5 -12.5t18.5 -28.5q1 -3 1 -9q0 -21 -16 -38t-36 -17q-26 0 -46 25q-9 12 -9 28
q0 32 25 45z" />
    <glyph glyph-name="equal" unicode="=" horiz-adv-x="414" 
d="M57 226q21 7 170 7q112 0 129 -5q16 -5 27 -17t11 -24t-13 -25t-29 -16q-14 -3 -147 -3q-130 0 -152 8q-34 13 -34 37t38 38zM51 409q15 7 156 7q101 0 123.5 -1.5t37.5 -8.5q26 -13 26 -34q0 -22 -26 -34q-14 -7 -35 -8.5t-125 -1.5q-112 0 -138.5 3.5t-41.5 19.5
q-9 11 -9 21q0 23 32 37z" />
    <glyph glyph-name="question" unicode="?" horiz-adv-x="427" 
d="M180 84q8 4 20 4q37 0 50 -26q7 -13 7 -26q0 -21 -15 -36.5t-38 -15.5q-25 0 -41 15.5t-16 36.5q0 16 12 31q9 12 21 17zM148 621q30 8 64 8q62 0 106 -21q41 -21 65 -63t24 -93q0 -8 -2 -26q-8 -62 -88 -143q-51 -53 -59 -77q-15 -43 -55 -43q-21 0 -35.5 18.5
t-14.5 41.5q0 14 6 26q7 16 56 65q51 53 63 74q11 18 13.5 27.5t2.5 35.5q0 31 -6.5 44.5t-26.5 27.5q-22 14 -48 14t-49.5 -12t-35.5 -33q-19 -33 -73 -33q-34 0 -34 6q0 10 7 44.5t10 40.5q5 9 27.5 28.5t36.5 26.5q18 9 46 16z" />
    <glyph glyph-name="at" unicode="@" horiz-adv-x="758" 
d="M443 332q-2 6 -7.5 7.5t-24.5 1.5q-49 0 -75 -39q-17 -25 -27.5 -71t-10.5 -90q0 -41 9 -63q11 -28 46 -28q20 0 44 12q21 11 28.5 30.5t13.5 80.5q7 86 7 123q0 27 -3 36zM310 597q27 6 84 6q66 0 103 -8q112 -26 174 -120q59 -88 65 -223q0 -5 0.5 -14t0.5 -13
q0 -78 -30 -139q-33 -67 -85 -92q-32 -16 -69 -18q-3 0 -9 -0.5t-9 -0.5q-45 0 -72 28q-14 14 -25 14q-13 0 -30 -14q-37 -28 -82 -28q-56 0 -88 42q-18 24 -24 49.5t-6 72.5q1 107 45.5 182.5t114.5 89.5q15 3 32 3q48 0 91 -22q5 -2 14 -6.5t11.5 -6t7.5 -5t6 -7.5
t2.5 -9.5t1.5 -14.5q0 -8 -1 -21t-3 -36.5t-4 -42.5q-10 -107 -10 -150q0 -28 5 -38t18 -15q4 -2 13 -2q31 0 58 22q27 23 42 72t15 108q0 70 -21 133q-53 155 -226 168q-8 1 -25 1q-109 0 -184 -70t-101 -195q-10 -46 -10 -110t11 -111q25 -98 91 -150.5t163 -52.5
q45 0 95 12q29 7 37 7t14 -5q11 -8 11 -18q0 -11 -14 -26q-15 -16 -47 -25q-33 -9 -96 -9q-67 0 -100 9q-118 31 -181 126t-63 241q0 207 113 329q76 80 176 103z" />
    <glyph glyph-name="A" unicode="A" horiz-adv-x="566" 
d="M323 379q-35 100 -39 100q-1 0 -5 -9q-17 -42 -41 -116.5t-24 -83.5q0 -46 67 -46h12q25 1 32 3t16 13q12 14 12 29q0 23 -30 110zM264 613q13 7 20 7q6 0 21 -6q27 -11 42 -36.5t46 -111.5q51 -145 92 -255q61 -169 61 -192q0 -13 -11 -24t-25 -11q-16 0 -33 13
q-16 11 -24.5 23t-24.5 44q-15 31 -36 45q-33 23 -89 23q-4 0 -14 -0.5t-16 -0.5q-61 -1 -79 -11q-40 -21 -60 -67q-13 -31 -34.5 -49.5t-41.5 -18.5q-15 0 -25 10q-11 11 -11 27q0 24 34 115q59 159 75 202q63 173 77.5 207.5t30.5 48.5q13 13 25 18z" />
    <glyph glyph-name="B" unicode="B" horiz-adv-x="500" 
d="M276 267q-60 4 -66 4q-31 0 -52 -15q-17 -13 -22.5 -30.5t-5.5 -56.5q0 -38 5 -53.5t21 -28.5q18 -15 51 -15q19 0 55 3l62 5l17 16q29 28 29 71q0 51 -25 79l-16 17zM269 526q-65 5 -79 5q-24 0 -37 -12q-23 -20 -23 -75q0 -31 5.5 -47.5t20.5 -30.5l13 -13l64 3
q47 2 58 3.5t22 11.5q33 26 33 70t-31 70q-15 13 -46 15zM72 614q16 6 60 6q42 0 101 -4q80 -5 116 -16t65 -40q41 -41 41 -110q0 -38 -11 -61q-14 -26 -30 -42q-18 -18 -18 -25q0 -4 13 -16.5t18 -12.5q3 0 21 -27q31 -46 31 -100v-14q-1 -39 -16 -69q-25 -49 -79 -75
q-51 -24 -221 -24q-74 0 -95 6t-37 32l-12 21l1 260q1 242 6 267q4 14 18 28q11 11 28 16z" />
    <glyph glyph-name="C" unicode="C" horiz-adv-x="530" 
d="M201 621q33 9 69 9q52 0 100.5 -17.5t79.5 -48.5q24 -25 35 -48.5t17 -63.5l7 -45h-32q-33 0 -45 6q-10 5 -25 27.5t-15 32.5q0 8 -25 31q-22 21 -43 28.5t-56 7.5q-79 0 -119 -79q-19 -38 -19 -159t19 -159q41 -79 121 -79q61 0 98 33q22 19 28 42q17 58 82 58h8
q8 0 11.5 -0.5t5.5 -3t2 -8.5q0 -11 -6 -46q-6 -36 -16 -56t-34 -44q-46 -45 -112 -59q-25 -5 -61 -5q-43 0 -73 7q-60 16 -106.5 61.5t-61.5 103.5q-6 19 -11 84q-4 35 -4 73q0 50 11 124q11 73 56 124t114 69z" />
    <glyph glyph-name="D" unicode="D" horiz-adv-x="517" 
d="M265 526q-67 9 -84 9q-8 0 -11 -1q-9 -2 -20 -11q-16 -15 -19 -43.5t-3 -174.5q0 -134 1.5 -159.5t8.5 -39.5q8 -17 17 -23t28 -6q7 0 51 4q58 7 72 13q12 6 31.5 26t28.5 36q11 19 18 84q5 39 5 66q0 26 -5 64q-5 50 -11 68.5t-25 41.5q-19 24 -34.5 32.5t-48.5 13.5z
M75 621q12 3 49 3q109 0 179 -14q62 -13 108.5 -53.5t65.5 -98.5q9 -26 16 -88q4 -33 4 -73q0 -58 -11 -113q-5 -28 -23.5 -63.5t-38.5 -55.5q-18 -17 -48.5 -34.5t-53.5 -24.5q-61 -18 -189 -18q-53 0 -67 6q-31 13 -42 43q-5 13 -5 270q0 181 1.5 221t7.5 53q15 30 47 40z
" />
    <glyph glyph-name="E" unicode="E" horiz-adv-x="467" 
d="M128 174q0 -65 29.5 -82.5t105.5 -17.5h46q93 0 107 -7q30 -15 30 -35q0 -19 -30 -34q-14 -7 -178 -7q-122 0 -145.5 1.5t-36.5 8.5q-15 8 -27 29l-10 19v256q0 255 5 268q5 12 17 25t24 18q15 6 172 6h66q67 0 83.5 -1.5t28.5 -7.5q30 -16 30 -33q0 -6 -4 -13
q-6 -12 -24 -21q-20 -10 -129.5 -11.5t-118.5 -6.5q-12 -7 -24.5 -23.5t-14.5 -28.5q-2 -14 -2 -24q0 -37 13 -58q16 -22 35 -27.5t85 -5.5q63 0 90 -4.5t41 -17.5q10 -9 10 -21t-10.5 -23.5t-28.5 -16.5q-18 -4 -89 -4q-60 0 -82 -4t-38 -17q-15 -13 -20.5 -29.5
t-5.5 -49.5z" />
    <glyph glyph-name="F" unicode="F" horiz-adv-x="468" 
d="M61 615q11 6 83 6h97q135 -1 161.5 -4.5t39.5 -23.5q8 -11 0 -25q-10 -21 -33.5 -26t-119.5 -7q-88 -1 -107 -4.5t-35 -20.5q-21 -21 -21 -70q0 -57 31 -79q16 -12 75 -11t110 -6.5t59 -38.5q3 -11 -11 -25q-15 -15 -41 -19.5t-93 -4.5q-60 0 -75.5 -3.5t-28.5 -19.5
q-15 -17 -18.5 -34t-3.5 -75q0 -60 -4 -82.5t-18 -37.5q-13 -13 -31 -13q-20 0 -33 14q-11 11 -18 29q-4 15 -6 278l-1 261l13 17q13 17 29 25z" />
    <glyph glyph-name="G" unicode="G" horiz-adv-x="536" 
d="M216 628q4 1 43 1h27q45 -1 68.5 -6.5t55.5 -21.5q16 -8 40.5 -32.5t32.5 -39.5q5 -12 13.5 -48.5t8.5 -47.5q0 -5 -34 -5q-21 0 -29 2.5t-20 11.5q-16 12 -27 33q-19 38 -57 57q-20 10 -63 10q-42 0 -66 -12q-31 -16 -60 -59q-20 -32 -20 -165q0 -127 20 -161
q12 -21 36.5 -42t44.5 -28q21 -7 55 -7q78 0 99 23q19 21 19 71q0 29 -11 42q-23 26 -51 26q-25 0 -42.5 12.5t-17.5 29.5q0 41 114 41q55 0 71 -8q27 -12 38.5 -36.5t11.5 -70.5q0 -4 -0.5 -12.5t-0.5 -13.5q-4 -75 -31 -122q-13 -21 -42 -36q-67 -34 -154 -34
q-55 0 -89 10q-117 37 -157 140q-22 53 -22 183q0 104 16 155q19 62 67 104.5t113 55.5z" />
    <glyph glyph-name="H" unicode="H" horiz-adv-x="532" 
d="M43 611q13 11 29 11t29 -12q16 -15 21.5 -42.5t5.5 -93.5q0 -56 1.5 -69t8.5 -23q9 -15 24 -24q10 -7 24 -8.5t78 -1.5q62 0 77 1t27 8q24 14 30 33.5t8 96.5q2 88 8 100q16 35 44 35t46 -32q7 -13 8 -42.5t2 -227.5q0 -34 0.5 -84t0.5 -67q0 -95 -4 -121t-18 -42
q-13 -15 -33 -15q-19 0 -30 11q-15 15 -19.5 35.5t-4.5 78.5q0 71 -4 89q-4 13 -20 29.5t-29 19.5q-8 2 -59 2h-36q-71 -1 -87.5 -5.5t-32.5 -28.5q-7 -10 -8.5 -22t-1.5 -64q0 -62 -4.5 -88t-18.5 -42q-14 -15 -31 -15q-31 0 -46 30q-6 13 -7.5 54t-1.5 229v60q0 169 3 200
t21 47z" />
    <glyph glyph-name="I" unicode="I" horiz-adv-x="144" 
d="M43 611q11 11 27 11q28 0 46 -32q8 -14 9 -47.5t2 -222.5v-82q0 -169 -4 -193q-5 -24 -17 -38q-13 -16 -32 -16q-31 0 -46 30q-6 13 -7.5 54t-1.5 229q0 212 3 250.5t20 55.5z" />
    <glyph glyph-name="J" unicode="J" horiz-adv-x="448" 
d="M348 610q12 11 29 11t31 -14t19 -38q4 -16 4 -128q0 -260 -10 -318q-5 -33 -15.5 -52.5t-34.5 -41.5q-56 -50 -148 -50q-94 0 -151 52q-22 20 -28 34q-5 10 -13.5 47.5t-8.5 51.5q0 6 30 6q34 0 48 -7q26 -13 33 -42q3 -11 17 -24.5t30 -20.5q18 -8 44 -8q43 0 75 33
q10 10 13 19.5t6 41.5q4 35 4 228q0 148 3.5 176t22.5 44z" />
    <glyph glyph-name="K" unicode="K" horiz-adv-x="518" 
d="M44 613q14 13 30 13q26 0 43 -33q9 -19 10.5 -111.5t11.5 -106.5q8 -11 18 -13h2q26 0 121 127q71 95 83 104q45 34 84 34q23 0 30 -15q2 -6 2 -9q0 -13 -18 -40t-71 -96q-65 -86 -76 -110q-7 -17 -7 -32q0 -24 18 -53.5t67 -94.5q2 -2 2.5 -3t2 -3t3 -3.5t2.5 -3.5
q87 -117 92 -130t-1 -25q-7 -12 -30 -13h-9q-37 0 -68 26t-88 105q-98 137 -134 137q-14 0 -25 -17q-9 -14 -11 -110q-2 -76 -5.5 -94.5t-19.5 -35.5q-11 -12 -30 -12q-32 0 -46 32q-5 13 -6.5 56t-1.5 223q0 263 5 278q5 16 20 29z" />
    <glyph glyph-name="L" unicode="L" horiz-adv-x="436" 
d="M43 607q12 12 28 12q17 0 33 -16q14 -15 19 -35q5 -22 5 -230q0 -158 1 -186t9 -41q10 -17 27 -27q13 -7 28 -8.5t71 -1.5q67 0 95.5 -4.5t43.5 -16.5q12 -10 11 -27q-3 -29 -52 -39q-23 -5 -137 -5q-127 0 -147 5q-31 9 -49 38l-10 16v262v59q0 167 3 198t21 47z" />
    <glyph glyph-name="M" unicode="M" horiz-adv-x="677" 
d="M54 610q8 6 25 6h15q47 -1 76 -44q15 -22 86 -213q67 -182 79 -209q4 -9 5 -10q1 0 3 3l159 418q4 10 24 28q32 29 66 29q39 0 60 -39l9 -20v-259q0 -260 -5 -273q-4 -14 -18 -26q-14 -15 -31 -15q-33 0 -49 45q-5 14 -5 99q0 54 2 137.5t4 136t1 52.5q-6 -4 -126 -321
q-43 -114 -68 -136q-13 -13 -27 -13t-29 16q-18 19 -35.5 61t-116.5 302q-37 96 -41 96v-3q0 -5 1 -9q4 -17 6 -210q2 -142 2 -147q0 -52 -6 -68q-15 -37 -46 -37q-27 0 -45 31l-10 19v526l11 19q11 19 24 28z" />
    <glyph glyph-name="N" unicode="N" horiz-adv-x="531" 
d="M26 584q15 34 47 34q33 0 68 -35q17 -17 137 -215q117 -195 123 -195q4 0 4.5 97.5t2.5 202t9 117.5q15 28 43 28q31 0 46 -39q5 -15 6.5 -58t1.5 -219t-1.5 -219t-6.5 -58q-15 -38 -46 -38q-16 0 -31 8q-36 19 -78 85q-35 56 -45 70q-8 11 -88 143t-81 133l-8 11l-1 -11
q0 -95 1 -198v-76q0 -94 -4 -116.5t-20 -38.5q-11 -11 -27 -11q-31 0 -45 27q-8 14 -10 69.5t-3 235.5v148q0 104 6 118z" />
    <glyph glyph-name="O" unicode="O" horiz-adv-x="556" 
d="M337 526q-27 12 -67 12q-16 0 -28 -3q-29 -6 -55.5 -28t-41.5 -52q-16 -32 -16 -149q0 -121 17 -157q10 -21 28.5 -40.5t39.5 -29.5q24 -12 64 -12q39 0 64 12q20 10 39 28.5t29 38.5q19 38 19 156q0 59 -5 95q-5 46 -22 73q-26 39 -65 56zM241 627q20 2 33 2
q66 0 122 -27q86 -41 119 -131q22 -58 22 -173q0 -49 -6 -92q-7 -57 -23 -91.5t-49 -67.5q-71 -71 -181 -71q-109 0 -179 69q-40 40 -56.5 89.5t-21.5 141.5q0 4 -0.5 12t-0.5 12q0 110 23 172q51 135 198 155z" />
    <glyph glyph-name="P" unicode="P" horiz-adv-x="514" 
d="M293 526q-48 5 -72 5q-39 0 -52 -9q-23 -14 -32 -35t-9 -63q0 -38 5 -56t21 -35q13 -13 19.5 -15.5t31.5 -3.5h12q37 0 69 3q34 3 43.5 6t19.5 13q36 34 36 85q0 45 -31 81l-17 19zM64 610q16 8 107 8q109 0 158.5 -7.5t84.5 -29.5q73 -46 79 -146v-13q0 -90 -57 -142
q-30 -28 -64.5 -37.5t-126.5 -16.5q-65 -5 -79 -11q-10 -4 -24 -24q-8 -12 -10 -24.5t-4 -66.5q-2 -62 -8 -81.5t-28 -29.5q-9 -5 -17 -5q-5 0 -13 3q-28 11 -38 52q-5 17 -5 265q0 246 5 258q12 35 40 48z" />
    <glyph glyph-name="Q" unicode="Q" horiz-adv-x="562" 
d="M333 528q-27 9 -64 9q-20 0 -28 -2q-27 -6 -53.5 -28.5t-42.5 -53.5q-5 -10 -11 -62.5t-6 -88.5q0 -39 6 -90t12 -63q24 -48 67 -69q26 -13 64 -13q66 0 104 41q22 23 31 44.5t14 64.5q5 48 5 89q0 111 -24 156q-12 21 -33.5 40t-40.5 26zM238 626q20 3 38 3
q81 0 147.5 -43.5t91.5 -113.5q24 -68 24 -184q0 -101 -20 -152q-16 -38 -19 -44q-7 -16 -7 -39q0 -19 5 -29q8 -14 23 -30q17 -20 19 -46q1 -6 1 -15q0 -12 -9 -18q-10 -7 -29 -7q-17 0 -33 7q-14 7 -34 25q-21 19 -43 31l-24 13l-48 -6q-15 -2 -44 -2q-81 0 -144 41
q-42 26 -69 71q-29 48 -40 138q-4 32 -4 76q0 112 24 173q23 62 74 101.5t120 49.5z" />
    <glyph glyph-name="R" unicode="R" horiz-adv-x="526" 
d="M282 531q-45 5 -68 5q-51 0 -68.5 -21t-17.5 -78q0 -40 7 -59t25 -30q13 -9 50 -9q22 0 70 5q29 3 38 6t18 12q17 17 23 31t6 42q0 49 -31 79q-12 12 -52 17zM55 611l18 12l118 -3q95 -2 131.5 -6.5t66.5 -19.5q40 -20 63 -61t23 -91q0 -15 -1 -22q-6 -55 -51 -99
q-11 -10 -11 -19q0 -10 18 -30q19 -19 30 -43q12 -25 14 -90q4 -99 23 -128q11 -16 8 -19q-1 -3 -43 -3q-39 0 -62 11q-20 10 -24 24.5t-9 86.5q-3 71 -8 87q-6 14 -20 28q-13 12 -32 16.5t-74 7.5q-30 2 -34 2q-14 0 -32 -9q-25 -13 -31 -32t-8 -90q-1 -54 -3.5 -70
t-10.5 -32q-9 -19 -27 -29q-12 -6 -16 -6t-16 6q-16 8 -26 27l-10 19v265q0 187 1.5 228t7.5 54q8 16 27 28z" />
    <glyph glyph-name="S" unicode="S" horiz-adv-x="515" 
d="M189 616q24 6 73 6t73 -6q21 -4 51 -18q20 -9 47 -33t37 -40q6 -9 13.5 -41.5t7.5 -47.5q0 -1 -1 -3v-2q-3 -5 -28 -5t-38 5q-27 11 -41 40q-8 17 -29.5 34.5t-41.5 23.5t-47 6q-24 0 -47 -5q-33 -7 -53 -29.5t-20 -50.5q0 -11 5 -26q10 -25 36.5 -40t98.5 -38
q86 -27 130 -56t65 -72q10 -20 12 -31.5t2 -41.5q0 -44 -11 -67q-35 -72 -135 -99q-27 -7 -76 -7q-52 0 -84 8q-46 13 -86 38.5t-56 52.5q-8 13 -16 44.5t-8 48.5q0 5 0.5 6.5t3 2.5t8.5 1q2 0 9 -0.5t13 -0.5q31 -1 45.5 -10.5t28.5 -35.5q34 -66 133 -66h13q71 3 97 37
q15 20 15 48q0 19 -8 35q-13 24 -39.5 39t-93.5 34q-109 32 -160 78.5t-51 111.5q0 13 1 19q5 53 47 95.5t105 57.5z" />
    <glyph glyph-name="T" unicode="T" horiz-adv-x="533" 
d="M56 606q15 7 212 7h82q83 0 102 -1.5t31 -7.5q29 -14 29 -33q0 -6 -3 -12q-14 -29 -89 -33q-48 -2 -57 -7t-20.5 -18.5t-15.5 -23.5q-5 -13 -5 -222t-5 -226q-4 -15 -17 -31t-24 -18q-3 -1 -8 -1q-28 0 -44 33l-11 22v217q0 176 -3.5 208.5t-25.5 49.5q-1 0 -1.5 0.5
l-1.5 1.5q-12 9 -21.5 11.5t-43.5 3.5q-50 3 -65 11q-29 14 -29 33q0 21 34 36z" />
    <glyph glyph-name="U" unicode="U" horiz-adv-x="529" 
d="M44 607q13 11 29 11q15 0 27 -9q18 -14 21.5 -44t4.5 -171q2 -167 7 -224l6 -49l23 -21q38 -35 94 -35q3 0 9 0.5t10 0.5q65 3 102 41q11 12 14 21.5t7 43.5q5 45 5 216q0 168 7 188q14 42 48 42q18 0 31 -14q12 -14 18 -29q5 -17 5 -185q0 -191 -10 -251t-48 -98
q-67 -67 -188 -67q-114 0 -184 62q-41 37 -51.5 98t-10.5 256q0 144 3 172.5t21 44.5z" />
    <glyph glyph-name="V" unicode="V" horiz-adv-x="552" 
d="M31 606q11 12 26 12q18 0 38 -13.5t32 -36.5q10 -21 78 -229q64 -202 69 -215q3 -8 8 8l3 9q20 71 79 248t66 187q26 42 65 42q18 0 27 -12q9 -10 9 -29q0 -25 -19 -78q-22 -63 -94 -262t-82 -213q-21 -31 -52 -40h-2q-2 -1 -3 -1q-12 0 -29.5 11t-28.5 26
q-12 16 -24.5 47.5t-56.5 154.5q-59 168 -76 215q-42 118 -42 143q0 16 9 26z" />
    <glyph glyph-name="W" unicode="W" horiz-adv-x="765" 
d="M42 613q10 5 19 5q33 0 54 -36q10 -15 19 -52.5t43 -192.5q36 -166 38 -166h1q3 3 87 314q17 61 24.5 79.5t23.5 34.5q17 20 32 20q14 0 33 -20q15 -16 24.5 -39.5t29.5 -97.5q80 -293 83 -293q2 0 22.5 96t42.5 197t27 110q25 46 58 46q17 0 29 -14t12 -39q0 -11 -3 -23
q-18 -79 -92 -386q-20 -86 -29.5 -112t-25.5 -42q-17 -17 -36 -17q-29 0 -55 43q-11 19 -63 206q-53 190 -55 192q-1 2 -3 0q-5 -10 -71 -250q-26 -94 -35 -119.5t-20 -40.5q-16 -20 -30 -26q-12 -6 -17 -6q-4 0 -17 5q-25 10 -42 45q-8 16 -48 187q-11 47 -33.5 140.5
t-27.5 116.5q-19 84 -19 90q0 12 6.5 26.5t13.5 18.5z" />
    <glyph glyph-name="X" unicode="X" horiz-adv-x="514" 
d="M46 604q9 4 16 4q9 0 29 -8q27 -10 48.5 -33.5t47.5 -70.5q26 -46 40.5 -65t27.5 -19t28 19t40 63q32 57 56 80q37 34 72 34q34 0 34 -32q0 -14 -8 -29t-58 -96q-54 -87 -65 -109q-8 -16 -8 -50q0 -28 5 -40q9 -23 64 -107q6 -9 16 -25q61 -98 63 -113q0 -7 -9 -18
q-10 -11 -20 -11q-8 0 -14 1q-44 4 -64.5 21.5t-59.5 86.5q-29 51 -42 66.5t-26 15.5q-14 0 -28 -15.5t-40 -61.5q-50 -88 -93 -109q-20 -10 -39 -10q-37 0 -37 31q0 3 2 13q2 7 69 117.5t69 117.5q5 12 5 38t-5 41q-5 17 -70 121q-64 102 -64 120q0 15 3.5 21t14.5 11z" />
    <glyph glyph-name="Y" unicode="Y" horiz-adv-x="534" 
d="M35 601q12 11 20 11q6 0 10 -1q38 -7 67 -41q14 -17 64 -116q50 -100 62 -105q6 -3 11 -3q11 0 24.5 21t48.5 91q48 97 72 121q33 32 66 32q34 0 34 -33q0 -2 -0.5 -4t-0.5 -4q-1 -11 -64 -132q-106 -198 -116 -236q-7 -27 -10 -100q-2 -60 -7.5 -81t-22.5 -34
q-11 -9 -27 -9q-18 0 -28 10q-15 13 -19.5 32t-4.5 62q0 79 -14 126t-62 137q-116 216 -116 231q0 12 13 25z" />
    <glyph glyph-name="Z" unicode="Z" horiz-adv-x="500" 
d="M72 607q22 5 129 5h58l165 -1l22 -11q23 -11 23 -23q0 -18 -31.5 -72.5t-122.5 -192.5q-85 -129 -108.5 -168t-23.5 -53q0 -7 9 -16q10 -9 126 -11t128 -7q33 -13 33 -35q0 -21 -34 -38q-17 -8 -197 -8q-147 0 -175 3t-44 20q-7 7 -7 16q0 19 31.5 73t124.5 194
q127 194 127 205q0 28 -19 33q-5 1 -112 3q-102 1 -118 8q-29 13 -29 35q0 29 45 41z" />
    <glyph glyph-name="a" unicode="a" horiz-adv-x="439" 
d="M288 180q-12 6 -39 6q-25 0 -52 -4q-29 -3 -44 -20q-23 -25 -23 -53q0 -26 20 -41q14 -10 48 -10q35 0 60 13q40 22 46 62q1 6 1 15q0 24 -17 32zM171 452q19 4 59 4t59 -4q53 -12 91 -50q20 -20 25.5 -55t9.5 -167q5 -140 5 -170q0 -18 -10.5 -25.5t-34.5 -7.5
q-50 0 -61 32q-4 16 -11 16q-5 0 -16 -12q-13 -13 -41 -26.5t-50 -17.5q-16 -2 -24 -2q-34 0 -67.5 12t-49.5 31q-33 39 -33 98q0 33 6.5 51.5t26.5 39.5q13 15 37 28.5t43 17.5q15 4 86 9q71 4 79 11q6 5 6 16q0 3 -2 23q-1 22 -4 29.5t-13 16.5q-25 23 -61 23
q-11 0 -23 -3q-15 -3 -23.5 -8.5t-23.5 -20.5q-30 -31 -68 -31q-14 0 -21 1l-23 3l3 18q6 37 11.5 48.5t24.5 26.5q44 37 88 45z" />
    <glyph glyph-name="b" unicode="b" horiz-adv-x="455" 
d="M253 363q-15 3 -31 3q-60 0 -77 -32t-17 -121q0 -95 19 -125q9 -14 31.5 -22.5t47.5 -8.5q15 0 27 3q59 16 69 101q3 22 3 45q0 63 -20 106.5t-52 50.5zM53 650q16 7 20 7q24 0 43 -29q6 -11 8 -25.5t4 -76.5q2 -100 14 -100q3 0 33 15q20 10 31.5 12t43.5 2q44 0 72 -13
q90 -40 108 -192q4 -25 4 -44q0 -17 -6 -56q-7 -51 -15 -71q-11 -29 -36 -57.5t-51 -39.5q-29 -14 -71 -14q-71 0 -112 38q-10 10 -18 10q-5 0 -8 -8q-4 -13 -18.5 -21.5t-29.5 -8.5q-18 0 -27 10q-17 18 -20 59.5t-3 269.5v281l10 23q12 22 24 29z" />
    <glyph glyph-name="c" unicode="c" 
d="M184 448q21 4 48 4q54 0 99 -21q19 -9 41.5 -27.5t32.5 -34.5q5 -7 12.5 -41.5t7.5 -47.5q0 -6 -34 -6q-51 0 -66 29q-17 33 -43 47q-23 13 -51 13q-47 0 -68 -26q-33 -36 -33 -124q0 -24 3 -48q8 -75 48 -101q17 -11 38 -11h20q25 1 33.5 3.5t20.5 11.5q16 12 29 31
q20 31 64 31q2 0 5.5 -0.5t5.5 -0.5q26 -2 26 -6q0 -9 -5 -37q-5 -27 -9.5 -35.5t-22.5 -26.5q-59 -62 -154 -62q-46 0 -88 16q-31 12 -61 44.5t-43 68.5q-10 34 -14 67q-4 24 -4 52q0 46 14 99t55.5 92t92.5 47z" />
    <glyph glyph-name="d" unicode="d" horiz-adv-x="448" 
d="M288 347q-22 14 -55 14q-26 0 -44 -9q-59 -30 -59 -148q0 -25 3 -52q5 -38 17.5 -59t36.5 -32q18 -9 45 -9q34 0 56 14q21 14 27.5 41t6.5 99q0 74 -6.5 101t-27.5 40zM349 637q13 13 30 13t31 -14q17 -18 20 -61.5t3 -268.5v-282l-11 -23q-14 -30 -37 -30q-8 0 -17 3
q-18 4 -28 20q-8 14 -14 14t-19 -11q-7 -6 -39 -22q-26 -12 -67 -12t-67 12q-47 22 -71 60q-28 43 -37 116q-4 40 -4 47q0 8 4 50q5 44 12 70q26 85 93 118q20 10 30.5 12t39.5 2t40.5 -2t31.5 -12q28 -14 36 -14q15 0 15 96q0 60 4.5 81t20.5 38z" />
    <glyph glyph-name="e" unicode="e" horiz-adv-x="442" 
d="M270 354q-17 9 -46 9q-8 0 -18 -2q-22 -5 -40.5 -24.5t-25.5 -45.5q-5 -17 -5 -23q0 -8 10.5 -10t48.5 -2h25q83 0 89 4q4 3 4 14q0 10 -1 17q-5 44 -41 63zM182 448q14 3 34 3q57 0 90 -12q72 -27 100 -103q15 -45 15 -118q0 -13 -2 -17q-7 -9 -21 -16
q-12 -6 -34.5 -7.5t-108.5 -2.5l-126 -2q5 -15 8 -40q5 -30 29 -53t57 -28q12 -2 22 -2q27 0 57.5 6.5t38.5 13.5q4 4 13 4q17 0 30 -10q12 -11 12 -23q0 -47 -63 -65q-50 -14 -94 -14q-59 0 -103 22q-28 13 -53.5 39.5t-37.5 52.5q-24 52 -24 130q0 80 25 131
q18 38 58 70.5t78 40.5z" />
    <glyph glyph-name="f" unicode="f" horiz-adv-x="338" 
d="M215 657q24 4 38 4q49 0 60 -16q4 -5 4 -23v-12q-1 -25 -7.5 -33t-26.5 -8h-6h-5q-38 0 -56 -20q-5 -6 -9.5 -28.5t-4.5 -40.5q0 -14 3 -19q6 -13 54 -20q17 -2 27 -13t10 -26q0 -33 -41 -39q-39 -6 -50 -54q-5 -22 -5 -155q0 -110 -3 -133t-21 -39q-11 -11 -28 -11
q-26 0 -45 35q-11 21 -11.5 169.5t-10.5 167.5q-9 14 -24 19q-35 10 -35 40q0 16 13 29t25 13q19 0 25.5 12.5t12.5 60.5q5 48 12 65.5t30 37.5q33 29 75 37z" />
    <glyph glyph-name="g" unicode="g" 
d="M282 349q-23 13 -50 13q-47 0 -72 -33q-16 -21 -22.5 -42.5t-8.5 -60.5q-1 -11 -1 -31q0 -103 56 -133q22 -11 47 -11t46.5 9.5t29.5 26.5q16 32 16 119q0 72 -12 107q-5 16 -10 22.5t-19 13.5zM164 448q14 3 31 3q47 0 79 -16q29 -14 34 -21q8 -9 15 -9q8 0 17 14
q10 16 27 21q11 3 18 3q21 0 34 -25l11 -20v-213q0 -116 -0.5 -166t-6 -91t-13 -54.5t-24.5 -31.5q-57 -60 -166 -60q-42 0 -75 8q-36 8 -51 24t-15 35q0 32 26 40h3q13 0 33 -5q36 -10 72 -10q51 0 81 22q15 12 19.5 23.5t7.5 46.5q2 20 2 23q0 11 -7 11q-6 0 -16 -8
q-8 -7 -33 -18q-23 -10 -65 -10q-41 0 -67 10t-51.5 34.5t-38.5 52.5q-25 56 -25 138q0 91 29 152q17 37 48.5 63.5t66.5 33.5z" />
    <glyph glyph-name="h" unicode="h" horiz-adv-x="432" 
d="M46 639q10 10 27 10q19 0 30 -12q16 -18 19.5 -35t5.5 -87q2 -88 10 -96q6 -7 15 -2q4 3 36 19q20 10 31 12t41 2q39 0 62 -8.5t46 -31.5q28 -28 36.5 -67t8.5 -143v-60l-1 -130l-12 -16q-21 -23 -37 -23q-6 0 -18 5q-16 8 -25 28q-7 14 -8.5 28.5t-1.5 65.5q0 45 -5 150
q-3 52 -5 65.5t-9 20.5q-25 27 -71 27q-23 0 -41 -7q-24 -9 -33.5 -23t-13 -49.5t-5.5 -127.5q-2 -105 -3.5 -122.5t-9.5 -31.5q-17 -29 -41 -29q-28 0 -44 34l-11 22v283q0 196 1.5 242.5t6.5 59.5q7 17 19 27z" />
    <glyph glyph-name="i" unicode="i" horiz-adv-x="142" 
d="M46 431q14 13 27 13t27 -12q19 -16 22.5 -45t3.5 -181q0 -128 -1.5 -159t-7.5 -42q-15 -30 -37 -34h-4q-13 0 -27 10t-21 25q-6 13 -7.5 42.5t-1.5 155.5q0 148 3.5 179t23.5 48zM20 610q2 14 16.5 28t30.5 14q4 0 10 -2q1 0 6.5 -1t7.5 -1q9 0 21 -12q14 -13 14 -33
q0 -23 -14.5 -35t-35.5 -12q-23 0 -40 12t-17 33q0 6 1 9z" />
    <glyph glyph-name="j" unicode="j" horiz-adv-x="246" 
d="M159 450q7 4 17 4q29 0 46 -39q5 -12 6.5 -47t1.5 -175q0 -266 -13 -317q-5 -19 -28.5 -41t-47.5 -31q-30 -11 -71 -11q-32 0 -39 7q-9 9 -9 38q0 14 3 26l5 18h25q43 0 59 27q5 9 6.5 245.5t5.5 252.5q7 29 33 43zM144 654q12 6 29 6h7q22 -3 34 -16q13 -16 13 -31
q0 -17 -13 -30q-17 -17 -45 -17q-7 0 -10 1q-12 3 -25 15t-15 23q-1 2 -1 7q0 28 26 42z" />
    <glyph glyph-name="k" unicode="k" horiz-adv-x="426" 
d="M27 625q15 36 45 36q27 0 44 -32q7 -13 9 -38t3 -136q2 -158 10 -169q6 -9 8.5 -10t12.5 5q21 13 71 88q35 52 75 73q24 12 47 12q15 0 21 -6q7 -6 7 -18q0 -20 -19 -48q-48 -68 -62.5 -93.5t-14.5 -45.5q0 -7 4 -29q4 -18 15.5 -37t69.5 -102q32 -47 32 -67
q0 -10 -7 -17q-9 -9 -27 -9q-61 0 -130 103q-48 71 -74 91q-15 10 -18 10t-11 -11q-7 -11 -10 -77q-2 -66 -12 -84q-17 -32 -43 -32q-29 0 -46 37q-5 13 -6.5 59.5t-1.5 243.5t1.5 243.5t6.5 59.5z" />
    <glyph glyph-name="l" unicode="l" horiz-adv-x="145" 
d="M44 647q14 15 31 15q28 0 45 -37q5 -13 6.5 -59.5t1.5 -243.5t-1.5 -243.5t-6.5 -59.5q-16 -36 -46 -36q-35 0 -49 46q-5 15 -5 293t5 293q6 19 19 32z" />
    <glyph glyph-name="m" unicode="m" horiz-adv-x="697" 
d="M206 457q9 3 55 3q42 -1 68 -14q26 -14 37 -25q13 -13 24 -13q10 0 26 13q13 12 38 25q23 12 66 14h18q25 0 48 -8q32 -12 55.5 -41t30.5 -66q3 -13 7 -161q1 -36 1 -87q0 -54 -5 -72t-21 -32q-14 -11 -28 -11q-17 0 -31 14.5t-18 38.5q-4 18 -6 160l-2 137l-20 18
q-20 18 -41 22q-5 1 -15 1q-27 0 -49.5 -13.5t-32.5 -37.5q-7 -15 -8 -36.5t-1 -117.5q0 -110 -3.5 -134t-22.5 -40q-14 -11 -28 -11q-26 0 -42 33q-8 15 -10 38.5t-3 128.5l-2 147l-17 17q-26 26 -60 26q-15 0 -23 -2q-43 -10 -54 -35q-7 -14 -9 -158q-1 -101 -3 -124
t-10 -38q-17 -33 -42 -33q-16 0 -28 11q-19 16 -22.5 44.5t-3.5 180.5q0 148 3.5 178t20.5 47q11 10 28 10q33 0 47 -29q6 -11 10 -11q3 0 16 10q24 20 62 33z" />
    <glyph glyph-name="n" unicode="n" horiz-adv-x="432" 
d="M208 455q18 6 54 6t55 -6q50 -16 75 -62q14 -26 18.5 -71.5t4.5 -162.5q0 -103 -3.5 -126t-22.5 -39q-13 -12 -29 -12q-25 0 -42 32q-12 22 -12 167.5t-11 160.5q-24 30 -75 30q-25 0 -49 -11q-28 -14 -36 -50t-8 -150q0 -120 -4 -133q-5 -19 -20 -32.5t-30 -13.5
t-30 13.5t-20 32.5q-4 15 -4 194q0 149 4 179.5t26 45.5q10 7 25 7q31 0 45 -28q9 -17 12 -17q5 0 15 10q25 23 62 36z" />
    <glyph glyph-name="o" unicode="o" horiz-adv-x="474" 
d="M276 367q-18 7 -44 7q-14 0 -30 -4q-28 -8 -50 -45q-16 -26 -19 -66q-2 -15 -2 -45q0 -70 17 -99q33 -54 90 -54q2 0 6.5 0.5t6.5 0.5q45 4 72 50q22 36 22 104q0 21 -3 44q-5 43 -19 64q-21 32 -47 43zM175 456q13 4 72 4q39 -1 51 -3t34 -13q62 -30 93 -92
q28 -56 28 -137q0 -11 -2 -25q-11 -74 -29 -109q-53 -107 -184 -107q-182 0 -211 195q-5 37 -5 47q0 11 5 49q6 42 12.5 62.5t21.5 43.5q43 67 114 85z" />
    <glyph glyph-name="p" unicode="p" horiz-adv-x="455" 
d="M266 366q-22 11 -49 11q-32 0 -58 -16q-14 -9 -22.5 -51t-8.5 -94q0 -70 14 -111q14 -38 77 -38q31 0 48.5 9t34.5 32q16 23 20 63q3 26 3 49q0 116 -59 146zM201 462q6 2 57 2q44 -1 67 -13q18 -10 39.5 -30t31.5 -38q21 -36 33 -123q4 -31 4 -49q0 -22 -5 -53
q-13 -75 -35 -107q-28 -41 -68 -59q-26 -12 -74 -12q-33 0 -44.5 2t-31.5 12q-21 11 -28 11q-3 0 -6 -3q-14 -14 -14 -92q0 -47 -7.5 -68t-27.5 -31q-12 -6 -17 -6q-2 0 -14 4q-30 12 -39 57q-3 16 -3 173v110q1 192 2.5 227.5t8.5 50.5q15 32 40 32q4 0 12 -2q13 -4 25 -13
t12 -16q0 -6 7 -6q10 0 22 10q23 19 53 30z" />
    <glyph glyph-name="q" unicode="q" 
d="M289 362q-18 13 -49 14q-31 0 -44 -5q-13 -6 -28 -23t-22 -34q-14 -31 -14 -103q0 -30 2 -44q3 -30 6 -40t14 -24q18 -23 33.5 -30.5t45.5 -7.5q34 0 51.5 8.5t25.5 30.5q8 21 8 113q0 84 -5 108t-24 37zM178 464q16 2 25 2q52 0 98 -31q21 -15 27 -15q5 0 10 10
q9 25 44 25q17 0 25 -6t16 -26q7 -16 7 -292q0 -186 -1.5 -233t-7.5 -61q-15 -32 -44 -32q-27 0 -44 32q-10 19 -12 86q-3 69 -8 74q-2 2 -6 2q-6 0 -27 -9q-33 -15 -79 -15q-28 0 -49 6q-66 20 -100 87q-12 23 -16.5 38.5t-9.5 56.5q-4 40 -4 48q0 7 4 51q11 85 42 131
q41 61 110 71z" />
    <glyph glyph-name="r" unicode="r" horiz-adv-x="288" 
d="M210 464q7 2 20 2q28 0 33 -8q4 -5 4 -28q0 -21 -4 -34q-5 -20 -15 -28.5t-28 -8.5q-39 0 -56.5 -10t-25.5 -38q-8 -25 -8 -148q0 -89 -1.5 -109.5t-9.5 -36.5q-15 -33 -43 -33q-17 0 -30 14q-20 20 -23 44.5t-4 162.5q0 16 -0.5 43.5t-0.5 37.5q0 84 4.5 110.5
t18.5 43.5q13 15 34 15q23 0 35 -11q13 -11 13 -20q0 -10 7 -10t16 10q30 32 64 40z" />
    <glyph glyph-name="s" unicode="s" horiz-adv-x="428" 
d="M177 464q19 3 40 3q82 0 141 -48q25 -20 28 -23q2 0 9 -39q4 -26 4 -30q0 -10 -4.5 -13t-16.5 -3t-20 1q-53 3 -65 28q-21 41 -78 41q-52 0 -68 -27q-8 -12 -8 -28q0 -30 32 -45q25 -11 62 -19q128 -27 162 -85q12 -20 12 -58t-13 -61q-46 -83 -177 -83q-96 0 -158 56
q-17 16 -21.5 24t-9.5 35q-6 34 -6 40t30 6q54 0 74 -33q24 -44 90 -44h12q72 4 72 57q0 42 -90 62q-130 29 -163 86q-13 22 -13 56q0 33 10 54q36 74 133 90z" />
    <glyph glyph-name="t" unicode="t" horiz-adv-x="308" 
d="M127 566q14 6 20 6q4 0 19 -5q32 -13 36 -52q4 -23 9 -35q5 -10 17.5 -17.5t23.5 -7.5t23 -13.5t12 -25.5q0 -14 -13 -27t-27 -13q-28 0 -38 -37q-5 -17 -5 -133v-116l11 -12q12 -11 35 -11q22 0 28 -7.5t8 -33.5v-12q0 -19 -7 -26q-5 -7 -12.5 -8.5t-36.5 -3.5
q-9 -1 -24 -1q-20 0 -36 6q-20 7 -41 27t-26 36q-3 11 -7.5 143.5t-5.5 139.5q-4 19 -14.5 34t-20.5 15q-9 0 -19.5 9.5t-12.5 20.5q-3 12 4 28q6 16 27 22q19 5 27 17t13 40q7 41 33 53z" />
    <glyph glyph-name="u" unicode="u" horiz-adv-x="432" 
d="M43 444q11 11 27 11q28 0 46 -32q7 -13 9 -37.5t3 -129.5l2 -148l11 -14q13 -17 26.5 -22t42.5 -5q34 0 56 10q19 9 26 22.5t10 47.5t5 122q2 111 6 136.5t22 39.5q11 10 28 10q16 0 29 -11q18 -16 21 -45.5t3 -180.5q0 -126 -1.5 -158t-6.5 -45q-15 -31 -42 -31
q-2 0 -4 0.5t-4 0.5q-14 2 -28 14t-14 22q0 7 -6 7q-9 0 -22 -13t-43 -27q-27 -13 -47 -13q-15 0 -26 1q-71 3 -107 43q-29 32 -37.5 82.5t-8.5 188.5q0 91 3.5 114t20.5 40z" />
    <glyph glyph-name="v" unicode="v" horiz-adv-x="431" 
d="M36 450q7 5 25 5q17 0 38 -18q22 -20 29 -36q2 -5 43 -137t44 -138q0 -2 2 -2q4 0 11 30q54 194 74 245q4 12 19 28t26 22q14 6 30 6q17 0 24 -11q9 -14 9 -27q0 -20 -23 -86q-96 -272 -106 -294q-9 -19 -29 -36t-33 -17q-40 0 -67 53q-7 13 -65.5 177.5t-62.5 181.5
q-2 10 -2 16q0 29 14 38z" />
    <glyph glyph-name="w" unicode="w" horiz-adv-x="643" 
d="M36 453q8 6 24 6q15 0 30.5 -12t25.5 -31q8 -17 38 -146q8 -35 15 -64.5t12 -46t6 -15.5q2 2 32.5 104.5t39.5 134.5q4 13 18 37.5t22 30.5q12 8 25 8q14 0 32 -20q13 -14 23 -40t31 -97q47 -163 50 -163q6 0 45 185q12 56 22.5 81t27.5 40t35 15q13 0 22 -9
q10 -12 10 -28q0 -28 -45 -195q-38 -140 -53 -179t-37 -54q-11 -8 -21 -8q-15 0 -36 22q-17 18 -29.5 51t-55.5 174q-19 65 -24 65q-1 0 -41 -128q-40 -131 -49 -144q-26 -39 -51 -39q-12 0 -27 12t-25 29q-7 13 -49.5 164t-55.5 207q0 1 -0.5 3.5t-0.5 4.5q0 31 14 45z" />
    <glyph glyph-name="x" unicode="x" horiz-adv-x="409" 
d="M35 454q10 7 22 7q15 0 37 -11q38 -18 67 -68q17 -28 27 -35q13 -11 27 -3q15 8 29 35q26 51 70 72q23 10 37 10q32 0 32 -30q0 -13 -7 -27t-41 -67t-39 -67q-4 -9 -4 -37q0 -37 6 -52q4 -13 41 -69q49 -77 49 -95q0 -8 -8 -18q-8 -8 -28 -8q-17 0 -32 6q-39 17 -69 71
q-25 45 -46 45q-19 0 -50 -51q-41 -71 -102 -71q-19 0 -25 5.5t-6 21.5q0 15 6 27t42 68q32 49 40 68t8 47q0 27 -8 45.5t-42 72.5q-38 59 -41 81q-2 20 8 27z" />
    <glyph glyph-name="y" unicode="y" horiz-adv-x="438" 
d="M39 454q6 6 18 6q17 0 37 -12q31 -19 63 -118q10 -31 24.5 -69t25.5 -78l13 -45l5 17q7 19 8 30q3 21 36.5 120t41.5 112q30 44 67 44q27 0 36 -28q3 -9 3 -16q0 -14 -25 -82q-6 -18 -26.5 -75t-27.5 -77q-35 -99 -35 -102q-2 -10 -30 -86t-42 -106q-16 -34 -36 -53
q-23 -21 -41 -27.5t-55 -6.5q-42 0 -49 8q-6 8 -6 30q0 16 5 33q4 11 8.5 13.5t23.5 4.5q30 2 40.5 11.5t26.5 41.5q16 30 16 44q0 23 -17.5 75.5t-80.5 221.5q-3 8 -4.5 12.5t-4.5 12t-5 13.5q-30 79 -30 92q0 20 17 39z" />
    <glyph glyph-name="z" unicode="z" horiz-adv-x="426" 
d="M64 455q19 6 147 6q102 0 129.5 -3t42.5 -17q8 -8 8 -18q0 -35 -115 -186q-85 -112 -87 -122q-1 -3 -1 -9q0 -18 13 -25q5 -2 80 -5.5t79 -4.5q14 -2 29.5 -15.5t15.5 -23.5t-15.5 -23.5t-29.5 -15.5q-6 -1 -95 -1h-68q-109 1 -130.5 2t-30.5 8q-14 11 -14 26
q0 21 25.5 62.5t89.5 127.5q52 69 68.5 94t16.5 36q0 7 -9 16q-9 8 -78 10q-57 2 -77.5 8t-29.5 23q-3 6 -3 12q0 24 39 38z" />
    <glyph glyph-name="nbsp" unicode="&#xa0;" horiz-adv-x="130" 
 />
  </font>
</defs>
</svg>
